<?xml version="1.0" encoding="utf-8"?>
<!-- Generator: Adobe Illustrator 27.0.0, SVG Export Plug-In . SVG Version: 6.00 Build 0)  -->
<svg version="1.1" id="Camada_1" xmlns="http://www.w3.org/2000/svg" xmlns:xlink="http://www.w3.org/1999/xlink" x="0px" y="0px"
	 viewBox="0 0 1920 1080" style="enable-background:new 0 0 1920 1080;" xml:space="preserve">
<g>
	<path d="M1673.08,574.63c-7.85,7.66-16.23,14.52-26.48,19.12c-9.52,4.27-18.58,4.03-25.79-2.9c-7.11-6.83-8.43-16.38-5.85-26.01
		c0.41-1.52,0.82-2.81,0.27-4.93c-10.07,9.48-18.73,20.07-30.48,27.15c-5.05,3.04-10.07,6.59-15.78,7.63
		c-10.06,1.85-19.62,0.01-25.34-9.57c-2.21-3.71-3.12-2.84-5.45-0.68c-5.16,4.75-11.29,8.19-17.86,10.33
		c-11.61,3.78-23.44,2.15-31.66-6.45c-9.19-9.62-6.7-21.84-1.8-33.37c7.84-18.43,19.87-34.22,31.45-50.29
		c1.27-1.77,2.52-3.47,3.4-5.66c0.42-1.05-0.44-2.19-1.56-2.08c-5.75,0.58-9.38,4.72-13.15,8.02
		c-27.32,23.91-51.45,50.72-72.61,80.25c-2.83,3.95-6.18,7.18-12.34,6.73c-11.13-0.8-13.32-3.66-8.04-13.15
		c13-23.34,27.6-45.77,39.51-69.73c1.51-3.04,4.58-6.53,0.64-9.79c-3.55-2.93-6.45,0.41-8.85,2.23
		c-15.04,11.42-27.4,25.6-40.09,39.44c-12.55,13.67-22.18,29.49-32.34,44.85c-4.8,7.26-10.61,6.98-16.85,5.01
		c-3.6-1.14-5.99-0.71-9.13,0.79c-15.54,7.42-30.45,8.39-43.09-5.75c-2.37-2.65-2.91,0.01-3.62,0.87
		c-5.67,6.91-13.41,7.89-21.62,8.24c-34.97,1.49-68.09-7.67-100.9-17.93c-9.73-3.04-16.71-3.18-25.59,3.41
		c-21.19,15.71-45.74,19.38-71.49,14.43c-10.81-2.08-18.25-9.15-19.19-17.3c-1.68-14.47,2.33-23.09,13.72-28.45
		c17.91-8.43,36.96-7.16,55.87-5.77c6.3,0.47,12.49,2.49,18.72,3.84c3.08,0.67,3.75-1.76,5.29-3.55
		c22.33-26.07,38.07-56.67,58.11-84.32c18.32-25.27,37.68-49.47,64.06-66.93c11.75-7.78,24.67-12.61,38.96-12.96
		c20.44-0.5,27.82,16.16,20.51,30.89c-12.01,24.22-31.58,41.31-57.39,50.46c-4.95,1.76-8.75-1.48-11.9-4.86
		c-3.69-3.95-2.24-8.92-1.38-13.94c0.11-0.64,1.01-1.42,1.53-1.65c19.18-8.36,15.34-6.23,26.48-14.78
		c2.49-1.91,12.07-10.37,14.25-12.67c1.75-1.84,4.02-6.47,2.39-8.59c-1.77-2.3-5.48-1.67-8.11-0.51
		c-7.6,3.37-14.23,8.19-20.42,13.81c-28.61,26.02-49.08,58.35-70.26,90.16c-9.44,14.18-18.91,28.34-28.95,42.09
		c-3.03,4.14-0.51,4.77,1.97,5.34c22.02,5.06,43.9,10.71,66.19,14.64c11.01,1.94,22.16,2.19,33.11,4.29
		c8.67,1.66,14.82-2.08,17.87-10.35c6.28-17.03,16.38-31.98,25.58-47.42c2.5-4.19,5.02-7.87,0.29-12.39
		c-2.45-2.34-1.94-5.02,0.48-8.14c7.17-9.21,16.25-15.74,26.23-21.46c5.3-3.04,8.18,0.16,11.44,3.01c3.38,2.95,4.85,6.15,2.38,10.76
		c-12.05,22.43-24.58,44.57-37.73,66.37c-1.73,2.86-3.72,5.75-4.57,8.91c-0.91,3.39-4.17,7.09,0.23,10.68
		c3.86,3.16,8.03,2.41,11.81,0.87c13.45-5.44,23.92-14.45,30.38-27.62c10.8-22.03,23.04-43.2,36.95-63.43
		c5.4-7.85,12.94-10.37,21.45-9.17c6.11,0.87,4.1,6.35,2.12,9.47c-4.16,6.58-9.58,12.34-13.85,18.87
		c-1.23,1.89-0.64,0.83-6.73,11.76c10.85-10.9,25.67-25.16,37.72-32.05c3.77-2.16,7.74-3.95,11.53-6.07
		c5.09-2.84,11.36-2.95,16.27,0.2c7.61,4.89,6.5,12.82,4.74,19.57c-1.44,5.52-4.75,10.57-7.69,16.66c0.27-0.55-0.9,2.56,7.15-4.97
		c11.33-10.59,20.52-21.67,33.82-29.04c8.73-4.84,17.85-7.93,27.92-7.8c10.28,0.13,15.87,8.57,10.65,17.56
		c-9.43,16.26-19.81,31.97-29.64,48c-4.57,7.45-9.18,14.93-13.06,22.74c-3.64,7.34-2.11,13.42,3.07,15.25
		c2.72,0.96,6.89-0.18,11-2.09c5.21-2.42,13.07-6.62,20.27-20.09c13.2-36.15,38.71-59.76,75.18-71.06
		c9.82-3.04,20.22-1.68,27.97,7.69c2.89-6.11,7.92-7.5,14.25-7.07c3.46,0.24,6.53,0.8,7.82,3.95c1.17,2.85,0.57,5.7-1.4,8.74
		c-13.41,20.75-24.57,42.59-30.59,66.75c-0.49,1.99-0.76,4.11-0.73,6.16c0.1,7.13,3.47,9.39,9.98,6.59
		c10.16-4.37,17.44-12.29,24.55-20.36c1.19-1.36,2.19-2.9,3.36-4.28c1.4-1.65,3.05-3.19,5.38-2.28c2.2,0.86,2.37,2.89,2.68,5.12
		C1681.9,561.35,1679.17,568.69,1673.08,574.63L1673.08,574.63z M1110.81,563.4c-4.38-0.34-10.21,0.16-14.81,0.89
		c-2.64,0.42-5.56,2.34-5.83,5.09c-0.28,2.93,2.22,4.63,4.55,4.93c13.4,1.73,23.04-2.29,33.15-8.14
		C1121.8,563.8,1116.73,563.86,1110.81,563.4L1110.81,563.4z M1639.44,496.9c-2.2-0.11-3.43-0.23-4.66-0.23
		c-1.04,0-2.13,0-3.13,0.26c-35.19,9.17-54.76,34.94-69.39,65.77c-1.32,2.78-1.91,7.65,0.69,9.58c2.67,1.97,6.15-0.72,9.06-2.58
		c7.73-4.93,14.2-11.38,21.21-17.16C1611.96,537.1,1625.35,517.25,1639.44,496.9L1639.44,496.9z M505.84,424.52
		c-12.89,15.63-29.19,26.3-46.77,35.49c-1.73,0.9-3.76,1.22-5.13,3.24c5.16,0.27,10.12-0.32,14.82,1.69
		c3.78,1.62,4.74,3.72,1.97,7.05c-13.21,15.86-26.63,31.55-39.53,47.65c-11.68,14.58-23.62,29-33.87,44.68
		c-0.88,0.59-1.42,1.37-0.57,2.25c0.19,0.2,1.18-0.38,1.81-0.6c7.22-6.07,14.36-12.24,21.7-18.16c2.16-1.74,4.82-2.91,7.37-4.07
		c4.82-2.21,11.16-2.67,13.63,1.23c2.07,3.26-3.9,6.33-6.93,8.85c-23.78,19.77-49.54,37.14-72.96,57.19
		c-17.43,14.92-31.52,33.77-47.92,50.1c-6.68,6.64-14.19,8.27-23.34,5.34c-7.07-2.27-7.53-6.05-4.73-11.72
		c6.42-13.03,17.08-22.58,28.13-31.08c16.91-12.99,31.21-28.29,45.36-44.03c11.05-12.29,22.31-24.42,33.21-36.87
		c1.61-1.84,3.98-3.21,4.24-5.97c0.43-0.62,0.8-1.15,1.23-1.77c1.9-1.02,3.63-2.11,3.44-4.91c-2.41,0.79-3.47,2.5-4.61,4.1
		c-0.25,0.16-0.45,0.36-0.6,0.62c-12.99,9.6-24.38,21.22-38.15,29.84c-11.34,7.1-22.67,13.96-35.75,17.74
		c-25.12,7.27-40.7-4.92-40.04-31.08c0.61-24.22,11.86-44.09,25.29-62.7c27.88-38.64,63.64-68.38,106.46-89.21
		c18.73-9.11,38.33-15.81,59.54-17.15c5.71-0.36,11.05-0.94,16.81,0.13c8.64,1.6,16.41,4.61,19.49,13.11
		C513.03,405.39,513.58,415.12,505.84,424.52L505.84,424.52z M489.31,403.16c-1.59-3.8-6-3.27-9.64-3.17
		c-2.9,0.08-5.88-0.31-8.68,0.23c-21.99,4.2-42.15,13.1-60.94,25.01c-29.72,18.84-56.31,41.5-78.35,68.97
		c-11.68,14.55-22.68,29.81-26.46,48.95c-2.35,11.87,4.62,19.1,16.1,16.1c10.81-2.83,20.54-7.95,29.9-13.74
		c22.34-13.82,42.96-30.03,62.8-47.16c12.24-10.57,25.13-20.51,35.4-33.27c-7.1,1.77-13.77,3.66-20.91,3.08
		c-11.05-0.9-16.79-9.55-11.46-17.96c1.92-3.03,4.92-5.4,7.52-7.98c1.34-1.33,3.26-1.63,3.18,0.76c-0.23,6.66,4.68,5.1,7.56,4.25
		c20.1-5.93,37.13-16.93,51.24-32.43C489.59,411.47,490.97,407.12,489.31,403.16L489.31,403.16z M703.34,383.82
		c-12.13,18.58-24.06,37.31-35.78,56.16c-8.22,13.22-16.02,26.7-25.13,41.95c8.85-4.5,16.44-6.07,23.88-7.01
		c18.1-2.29,33.32,6.43,28.73,29.68c-3.39,17.24-12.9,31.48-23.42,44.83c-13.65,17.33-29.4,32.68-50.17,41.46
		c-8.23,3.48-16.7,7.78-26.21,2.99c-4.18-2.11-7.87-5.24-9.69-8.86c-3.08-6.15-5.32-3.66-8.47-0.74c-4.42,4.1-9.8,6.62-15.14,9.34
		c-9.4,4.79-18.67,3.98-25.88-2.72c-7.21-6.7-8.55-16.34-5.98-25.99c0.41-1.53,0.74-2.84,0.38-5.11
		c-10.09,9.59-18.73,20.18-30.49,27.17c-5.49,3.26-10.8,7.03-17.31,7.91c-23.22,3.11-31.39-16.25-27.33-33.65
		c9-38.56,34.83-62.99,70.44-77.62c11.88-4.88,24.27-5.52,34.75,5.37c3.05-4.55,6.89-7.69,13.28-6.75c3.47,0.51,7.16,0.17,8.74,3.77
		c1.39,3.18,0.37,6.13-1.69,9.39c-13.01,20.61-24.27,42.07-30.22,65.98c-0.66,2.66-0.88,5.19-0.69,7.72
		c0.41,5.53,3.44,8.63,8.9,5.87c12.05-6.09,22.94-13.8,27.77-27.2c13.55-37.58,34.11-71.5,54.79-105.32
		c11.76-19.23,24.48-37.86,36.74-56.78c4.75-7.33,11.43-11.12,20.15-10.96c2.21,0.04,5.46-1.37,6.47,1.08
		C705.75,378.2,705.16,381.04,703.34,383.82L703.34,383.82z M554.88,496.66c-2.91,0-4.49-0.08-6.05,0.03
		c-1.02,0.07-2.01,0.44-3.02,0.64c-21.73,4.31-36.77,18.67-50.33,34.62c-7.43,8.74-13.06,18.95-17.61,29.6
		c-1.5,3.53-2.22,8.25,0,10.4c2.79,2.7,6.57-0.37,9.51-2.51c17.22-12.46,33.18-26.31,46.2-43.21
		C540.8,516.88,547.43,507.06,554.88,496.66L554.88,496.66z M634.64,504.22c-3.44-2.11-4.16-0.24-5.72,2.28
		c-7.88,12.68-14.06,26.22-20.28,39.72c-3.1,6.73-5.43,13.81-6.5,20.3c-0.18,7.73,2.39,9.47,8.95,8.01
		c2.33-0.52,4.46-1.32,6.42-2.37c15.5-8.29,27.09-21.11,38.27-34.21c7.54-8.83,13.25-18.79,15.27-30.61
		c1.42-8.34-3-12.97-10.96-10.95c-5.99,1.52-11.63,3.9-17.38,6.05C640.19,503.38,637.42,505.93,634.64,504.22L634.64,504.22z
		 M956.4,490.05c-3.2,8.69-10,13.64-18.51,15.98c-7.47,2.05-8.99,0.36-10.18-9.81c-13.47,5.02-24.48,13.39-34.81,22.78
		c-1.15,1.05-2.2,2.83-1.84,4.2c0.56,2.17,2.76,3.36,4.51,3.44c5.05,0.23,10.13-3.31,14.52-5.07c7.18-2.88,11.21-0.15,13.53,5.91
		c2.29,5.98-2.98,8.29-6.94,9.91c-12.46,5.09-23.64,12.28-34.68,19.78c-4.73,3.22-7.56,7.29-5.76,13.18
		c1.76,5.76,6.96,6.39,11.83,7.09c19.53,2.79,34.19-7.36,48.48-18.45c4.32-3.35,8.76-6.54,13-9.99c4.9-3.99,6.54-0.43,7.21,3.37
		c1.64,9.27-2.46,16.13-9.78,21.58c-18.36,13.66-37.75,24.25-61.74,22.6c-10.32-0.71-19.84-3.19-27.08-10.98
		c-2.9-3.12-4.5-3.1-8.18-0.6c-10.52,7.15-21.73,12.73-35.25,11.64c-9.98-0.8-23.19-11.26-23.88-21.07
		c-0.47-6.65,2.69-12.99,5.6-18.99c6.72-13.88,14.58-27.14,22.77-40.18c2.87-4.56,4.85-8.55-0.17-13c-2.32-2.05-1.5-4.49,0.33-6.93
		c7.5-9.97,17.2-17.18,28.2-22.67c4.61-2.3,7.66,1.13,10.62,4.08c2.98,2.96,4.23,5.92,1.93,10.19
		c-12.08,22.39-24.52,44.58-37.73,66.32c-2.14,3.52-4,7.04-5.12,11.14c-2.18,7.96-0.4,10.96,7.77,10.32
		c10.19-0.79,17.7-7.16,24.36-13.95c8.63-8.8,17.16-17.4,30.72-20.83c-13.07-9.64-10.5-25.7-2.84-34.99
		c14.07-17.06,33.31-25.52,54.51-29.94c5.73-1.19,11.34-2.88,17.45-0.27C956.61,478.98,959.08,482.77,956.4,490.05L956.4,490.05z
		 M1088.44,399.01c-8.72,24.28-23.51,45.05-38.6,65.59c-19.76,26.9-40.53,53-63.02,77.69c-6.17,6.78-6.88,15.13-6.01,23.44
		c0.9,8.61,14.36,13.03,24.48,8.77c8.6-3.62,15.48-9.47,21.94-15.97c3.34-3.36,6.51-6.98,10.24-9.84c3.15-2.41,6.23-2.77,6.53,2.94
		c0.42,7.97,0.29,15.43-6.29,21.53c-14.83,13.73-31.22,23.6-52.26,23.37c-14.47-0.16-25.04-10.27-25.41-24.67
		c-0.08-3.16-0.01-6.33-0.01-9.5c-0.08-25,8.26-48.02,17.6-70.57c16.03-38.72,39.05-73,68.71-102.64
		c5.75-5.76,12.3-10.89,20.52-13.37c7.63-2.31,14.47-1.89,20,4.26C1092.07,385.82,1090.74,392.62,1088.44,399.01L1088.44,399.01z
		 M1066.49,395.87c-3.56-2.33-7.72,3.08-10.5,6.27c-10.6,12.14-20.05,25.2-29.48,38.27c-16.15,22.38-29.48,46.17-36.76,73.22
		c13.05-13.65,23.88-29.1,34.79-44.42c14.22-19.96,28.47-39.82,39.99-61.68C1066.85,403.11,1070.44,398.44,1066.49,395.87
		L1066.49,395.87z M812.86,490.43c-4.04,12.78-12.44,23.08-19.54,34.07c-2.89,4.47-6.87,9.35-13.57,6.43
		c-4.62-2.02-6.94-10.8-4.18-16.74c2.44-5.26,5.72-10.12,9.21-16.15c-7.01,1.62-11.3,5.8-15.34,9.73
		c-25.2,24.54-50.52,48.99-70.68,78.11c-4.25,6.14-15.85,6.21-20.79,0.41c-3.01-3.54,0.06-6.5,1.42-9.08
		c4.68-8.87,9.82-17.5,14.97-26.11c12.97-21.68,26.09-43.27,39.05-64.95c4.68-7.83,11.37-11.78,20.49-11.68
		c7.63,0.08,8.08,1.11,5.21,8.77c-2.62,7.02-7.22,12.94-9.43,20.74c7.56-6.14,14.93-12.52,22.72-18.35
		c8.75-6.55,18.17-11.8,29.7-11.16C811.1,474.97,815.6,481.74,812.86,490.43L812.86,490.43z M286.36,736.06
		c-12.51-8.47-18.11-20.81-16.82-35.68c0.77-8.85-1.46-13.84-10.86-15.39c-5.48-0.9-7.67-9.99-3.81-15.91
		c3.05-4.68,2.44-6.81-2.3-9.86c-7.65-4.91-8.39-10.11-5.84-19.02c1.22-4.27,2.24-8.92,0.69-13.57c-1.67-5.01-2.94-8.88-10.26-6.8
		c-7.47,2.12-14.58-0.91-19.16-7.59c-5.41-7.89-3.12-16.08,1.36-23.1c10.11-15.81,18.46-32.52,26.76-49.29
		c5.03-10.16,5.98-20.6,2.09-31.1c-8.16-21.96-7.99-44.4-5.94-67.33c1.56-17.4,6.33-32.35,16.23-45.97
		c1.34-1.83,15.85-16.3,19-20.59c0,0-4.73-14.32,7.92-30.08l25.33-30.08l-19,28.5c0,0-9.08,12.6-4.75,23.75
		c0,0-27.9,35.32-28.3,43.63c-7.9,29.16-9.56,58.31,0.44,87.34c4.11,11.92,3.94,23.24-2.25,34.51c-8.1,14.75-15.39,29.9-24.37,44.25
		c-10.49,16.75-5.96,30.34,8.44,36.12c2.89,1.16,5.64,1.1,8.49,1.09c9.39-0.04,13.3,6.12,9.54,15.28
		c-3.24,7.88-0.71,16.99,5.89,22.39c2.76,2.26,4,3.48,1.71,7.3c-5.1,8.52-1.42,16.69,7.89,20.14c5.04,1.87,8.49,4.02,6.88,11.46
		c-3.58,16.54,11.5,45.75,37.13,43.93c2.88-0.2,5.78-0.03,8.67-0.03C313.55,739.38,299.97,745.28,286.36,736.06L286.36,736.06z
		 M511.09,797.6c-17.72-11.19-33.69-21.05-46.15-35.13c-6.68-7.55-13.82-13.85-22.27-19.25c-7.65-4.89-15.18-10.08-21.86-16.5
		c-10.76-10.34-22.81-18.45-41.29-15.63c17.69-9.93,34.02-8.17,47.57,3.03c10.89,9,21.6,18.05,33.68,25.42
		c3.09,1.89,6.35,4.05,8.48,6.88c10.73,14.21,25.04,24.22,39.19,34.49C514.34,785.2,508.2,790.79,511.09,797.6L511.09,797.6z
		 M1399.95,435.84c-3.09,9.42-8.69,16.72-18.8,19.73c-7.8,2.32-11,0.14-11-7.97c0.01-11.44,10.04-22.31,20.98-22.7
		C1398.22,424.65,1402.15,429.14,1399.95,435.84L1399.95,435.84z M891.71,435.39c-2.89,9.49-8.55,16.88-18.46,20.1
		c-8.2,2.66-11.53,0.24-11.44-8.23c0.11-11.04,9.81-21.54,20.54-22.25C889.62,424.52,893.74,428.7,891.71,435.39L891.71,435.39z
		 M397.93,534.81c-0.51-0.21-1.02-0.41-1.53-0.62c1.15-1.6,2.2-3.31,4.61-4.1C401.19,532.71,399.68,533.84,397.93,534.81
		L397.93,534.81z M396.75,566.57c-0.84-0.88-0.31-1.66,0.57-2.25c0.41,0.55,0.83,1.1,1.24,1.66
		C397.94,566.19,396.94,566.76,396.75,566.57L396.75,566.57z M396.36,536.39c-0.19-0.53-0.38-1.06-0.56-1.58
		c0.15-0.26,0.35-0.47,0.6-0.62c0.51,0.21,1.02,0.41,1.53,0.62C397.4,535.33,396.88,535.86,396.36,536.39L396.36,536.39z"/>
	<path d="M495.37,672.3H494l19.62,31.53h-10.97l-19.62-31.53h-10.02v31.53h-10.12v-74.35h32.48c10.86,0,19.09,9.28,19.09,21.51
		C514.46,663.12,506.24,672.3,495.37,672.3L495.37,672.3z M495.37,638.76l-22.36-0.21v24.68h22.36c5.59,0,9.8-5.27,9.8-12.23
		C505.18,643.82,500.65,638.76,495.37,638.76L495.37,638.76z M665.72,693.7v10.12h-44.93v-74.35h44.93v10.12h-34.8v20.36h28.48
		v10.12h-28.48v23.62H665.72L665.72,693.7z M799.04,639.6v64.22h-10.12V639.6h-21.09v-10.12h52.31v10.12H799.04L799.04,639.6z
		 M950.51,672.3h-1.37l19.62,31.53h-10.97l-19.62-31.53h-10.02v31.53h-10.12v-74.35h32.48c10.86,0,19.09,9.28,19.09,21.51
		C969.6,663.12,961.38,672.3,950.51,672.3L950.51,672.3z M950.51,638.76l-22.36-0.21v24.68h22.36c5.59,0,9.8-5.27,9.8-12.23
		C960.32,643.82,955.78,638.76,950.51,638.76L950.51,638.76z M1134.36,703.83l-7.07-20.25h-30.27l-7.81,20.25h-10.12l28.9-74.35
		h10.23l26.26,74.35H1134.36L1134.36,703.83z M1112.84,642.77l-12.02,31h22.99L1112.84,642.77L1112.84,642.77z M1273.59,639.6v64.22
		h-10.12V639.6h-21.09v-10.12h52.31v10.12H1273.59L1273.59,639.6z M1430.96,705.3c-18.24,0-32.06-16.56-32.06-38.39
		c0-22.57,13.81-39.55,32.06-39.55c18.24,0,32.06,16.98,32.06,39.55C1463.03,688.75,1449.21,705.3,1430.96,705.3L1430.96,705.3z
		 M1430.96,636.44c-12.55,0-21.93,13.08-21.93,30.48c0,16.66,9.39,29.32,21.93,29.32c12.55,0,21.93-12.65,21.93-29.32
		C1452.9,649.51,1443.51,636.44,1430.96,636.44L1430.96,636.44z M1589.71,635.28c-7.28,0-13.18,4.75-13.18,11.07
		c0,4.85,3.38,9.81,7.81,11.39l14.03,5.06c10.02,3.59,17.61,10.97,17.61,22.04c0,11.28-10.44,21.09-24.36,21.09
		c-12.45,0-24.26-8.01-27.53-18.66l7.91-4.75c2.64,8.33,10.76,14.13,19.62,14.13c8.44,0,15.29-5.17,15.29-12.02
		c0-5.38-4.01-10.86-9.39-12.66l-14.76-5.06c-9.18-3.16-15.29-11.5-15.29-20.35c0-11.07,9.7-20.56,22.46-20.56
		c10.44,0,21.41,6.54,25.63,15.29l-8.33,5.06C1603.95,639.81,1596.88,635.28,1589.71,635.28L1589.71,635.28z"/>
</g>
</svg>
