<?xml version="1.0" encoding="utf-8"?>
<!-- Generator: Adobe Illustrator 25.2.0, SVG Export Plug-In . SVG Version: 6.00 Build 0)  -->
<svg version="1.1" id="Camada_1" xmlns="http://www.w3.org/2000/svg" xmlns:xlink="http://www.w3.org/1999/xlink" x="0px" y="0px"
	 viewBox="0 0 1920 1080" style="enable-background:new 0 0 1920 1080;" xml:space="preserve">
<style type="text/css">
	.st0{fill:#FFFFFF;}
</style>
<g>
	<path class="st0" d="M1673.1,574.6c-7.8,7.7-16.2,14.5-26.5,19.1c-9.5,4.3-18.6,4-25.8-2.9c-7.1-6.8-8.4-16.4-5.8-26
		c0.4-1.5,0.8-2.8,0.3-4.9c-10.1,9.5-18.7,20.1-30.5,27.2c-5.1,3-10.1,6.6-15.8,7.6c-10.1,1.8-19.6,0-25.3-9.6
		c-2.2-3.7-3.1-2.8-5.4-0.7c-5.2,4.8-11.3,8.2-17.9,10.3c-11.6,3.8-23.4,2.2-31.7-6.5c-9.2-9.6-6.7-21.8-1.8-33.4
		c7.8-18.4,19.9-34.2,31.4-50.3c1.3-1.8,2.5-3.5,3.4-5.7c0.4-1-0.4-2.2-1.6-2.1c-5.8,0.6-9.4,4.7-13.2,8
		c-27.3,23.9-51.4,50.7-72.6,80.2c-2.8,4-6.2,7.2-12.3,6.7c-11.1-0.8-13.3-3.7-8-13.2c13-23.3,27.6-45.8,39.5-69.7
		c1.5-3,4.6-6.5,0.6-9.8c-3.6-2.9-6.4,0.4-8.8,2.2c-15,11.4-27.4,25.6-40.1,39.4c-12.6,13.7-22.2,29.5-32.3,44.8
		c-4.8,7.3-10.6,7-16.8,5c-3.6-1.1-6-0.7-9.1,0.8c-15.5,7.4-30.4,8.4-43.1-5.8c-2.4-2.7-2.9,0-3.6,0.9c-5.7,6.9-13.4,7.9-21.6,8.2
		c-35,1.5-68.1-7.7-100.9-17.9c-9.7-3-16.7-3.2-25.6,3.4c-21.2,15.7-45.7,19.4-71.5,14.4c-10.8-2.1-18.2-9.2-19.2-17.3
		c-1.7-14.5,2.3-23.1,13.7-28.5c17.9-8.4,37-7.2,55.9-5.8c6.3,0.5,12.5,2.5,18.7,3.8c3.1,0.7,3.8-1.8,5.3-3.5
		c22.3-26.1,38.1-56.7,58.1-84.3c18.3-25.3,37.7-49.5,64.1-66.9c11.8-7.8,24.7-12.6,39-13c20.4-0.5,27.8,16.2,20.5,30.9
		c-12,24.2-31.6,41.3-57.4,50.5c-4.9,1.8-8.8-1.5-11.9-4.9c-3.7-4-2.2-8.9-1.4-13.9c0.1-0.6,1-1.4,1.5-1.6
		c19.2-8.4,15.3-6.2,26.5-14.8c2.5-1.9,12.1-10.4,14.2-12.7c1.8-1.8,4-6.5,2.4-8.6c-1.8-2.3-5.5-1.7-8.1-0.5
		c-7.6,3.4-14.2,8.2-20.4,13.8c-28.6,26-49.1,58.4-70.3,90.2c-9.4,14.2-18.9,28.3-28.9,42.1c-3,4.1-0.5,4.8,2,5.3
		c22,5.1,43.9,10.7,66.2,14.6c11,1.9,22.2,2.2,33.1,4.3c8.7,1.7,14.8-2.1,17.9-10.3c6.3-17,16.4-32,25.6-47.4
		c2.5-4.2,5-7.9,0.3-12.4c-2.4-2.3-1.9-5,0.5-8.1c7.2-9.2,16.2-15.7,26.2-21.5c5.3-3,8.2,0.2,11.4,3c3.4,3,4.8,6.1,2.4,10.8
		c-12.1,22.4-24.6,44.6-37.7,66.4c-1.7,2.9-3.7,5.8-4.6,8.9c-0.9,3.4-4.2,7.1,0.2,10.7c3.9,3.2,8,2.4,11.8,0.9
		c13.4-5.4,23.9-14.5,30.4-27.6c10.8-22,23-43.2,36.9-63.4c5.4-7.9,12.9-10.4,21.4-9.2c6.1,0.9,4.1,6.4,2.1,9.5
		c-4.2,6.6-9.6,12.3-13.8,18.9c-1.2,1.9-0.6,0.8-6.7,11.8c10.8-10.9,25.7-25.2,37.7-32c3.8-2.2,7.7-4,11.5-6.1
		c5.1-2.8,11.4-3,16.3,0.2c7.6,4.9,6.5,12.8,4.7,19.6c-1.4,5.5-4.8,10.6-7.7,16.7c0.3-0.5-0.9,2.6,7.2-5
		c11.3-10.6,20.5-21.7,33.8-29c8.7-4.8,17.8-7.9,27.9-7.8c10.3,0.1,15.9,8.6,10.7,17.6c-9.4,16.3-19.8,32-29.6,48
		c-4.6,7.5-9.2,14.9-13.1,22.7c-3.6,7.3-2.1,13.4,3.1,15.2c2.7,1,6.9-0.2,11-2.1c5.2-2.4,13.1-6.6,20.3-20.1
		c13.2-36.2,38.7-59.8,75.2-71.1c9.8-3,20.2-1.7,28,7.7c2.9-6.1,7.9-7.5,14.2-7.1c3.5,0.2,6.5,0.8,7.8,4c1.2,2.9,0.6,5.7-1.4,8.7
		c-13.4,20.8-24.6,42.6-30.6,66.8c-0.5,2-0.8,4.1-0.7,6.2c0.1,7.1,3.5,9.4,10,6.6c10.2-4.4,17.4-12.3,24.6-20.4
		c1.2-1.4,2.2-2.9,3.4-4.3c1.4-1.7,3.1-3.2,5.4-2.3c2.2,0.9,2.4,2.9,2.7,5.1C1681.9,561.3,1679.2,568.7,1673.1,574.6L1673.1,574.6z
		 M1110.8,563.4c-4.4-0.3-10.2,0.2-14.8,0.9c-2.6,0.4-5.6,2.3-5.8,5.1c-0.3,2.9,2.2,4.6,4.6,4.9c13.4,1.7,23-2.3,33.2-8.1
		C1121.8,563.8,1116.7,563.9,1110.8,563.4L1110.8,563.4z M1639.4,496.9c-2.2-0.1-3.4-0.2-4.7-0.2c-1,0-2.1,0-3.1,0.3
		c-35.2,9.2-54.8,34.9-69.4,65.8c-1.3,2.8-1.9,7.7,0.7,9.6c2.7,2,6.2-0.7,9.1-2.6c7.7-4.9,14.2-11.4,21.2-17.2
		C1612,537.1,1625.3,517.2,1639.4,496.9L1639.4,496.9z M505.8,424.5c-12.9,15.6-29.2,26.3-46.8,35.5c-1.7,0.9-3.8,1.2-5.1,3.2
		c5.2,0.3,10.1-0.3,14.8,1.7c3.8,1.6,4.7,3.7,2,7c-13.2,15.9-26.6,31.5-39.5,47.6c-11.7,14.6-23.6,29-33.9,44.7
		c-0.9,0.6-1.4,1.4-0.6,2.2c0.2,0.2,1.2-0.4,1.8-0.6c7.2-6.1,14.4-12.2,21.7-18.2c2.2-1.7,4.8-2.9,7.4-4.1
		c4.8-2.2,11.2-2.7,13.6,1.2c2.1,3.3-3.9,6.3-6.9,8.8c-23.8,19.8-49.5,37.1-73,57.2c-17.4,14.9-31.5,33.8-47.9,50.1
		c-6.7,6.6-14.2,8.3-23.3,5.3c-7.1-2.3-7.5-6-4.7-11.7c6.4-13,17.1-22.6,28.1-31.1c16.9-13,31.2-28.3,45.4-44
		c11-12.3,22.3-24.4,33.2-36.9c1.6-1.8,4-3.2,4.2-6c0.4-0.6,0.8-1.2,1.2-1.8c1.9-1,3.6-2.1,3.4-4.9c-2.4,0.8-3.5,2.5-4.6,4.1
		c-0.2,0.2-0.5,0.4-0.6,0.6c-13,9.6-24.4,21.2-38.1,29.8c-11.3,7.1-22.7,14-35.8,17.7c-25.1,7.3-40.7-4.9-40-31.1
		c0.6-24.2,11.9-44.1,25.3-62.7c27.9-38.6,63.6-68.4,106.5-89.2c18.7-9.1,38.3-15.8,59.5-17.1c5.7-0.4,11-0.9,16.8,0.1
		c8.6,1.6,16.4,4.6,19.5,13.1C513,405.4,513.6,415.1,505.8,424.5L505.8,424.5z M489.3,403.2c-1.6-3.8-6-3.3-9.6-3.2
		c-2.9,0.1-5.9-0.3-8.7,0.2c-22,4.2-42.1,13.1-60.9,25c-29.7,18.8-56.3,41.5-78.4,69c-11.7,14.5-22.7,29.8-26.5,49
		c-2.4,11.9,4.6,19.1,16.1,16.1c10.8-2.8,20.5-8,29.9-13.7c22.3-13.8,43-30,62.8-47.2c12.2-10.6,25.1-20.5,35.4-33.3
		c-7.1,1.8-13.8,3.7-20.9,3.1c-11-0.9-16.8-9.5-11.5-18c1.9-3,4.9-5.4,7.5-8c1.3-1.3,3.3-1.6,3.2,0.8c-0.2,6.7,4.7,5.1,7.6,4.2
		c20.1-5.9,37.1-16.9,51.2-32.4C489.6,411.5,491,407.1,489.3,403.2L489.3,403.2z M703.3,383.8c-12.1,18.6-24.1,37.3-35.8,56.2
		c-8.2,13.2-16,26.7-25.1,42c8.8-4.5,16.4-6.1,23.9-7c18.1-2.3,33.3,6.4,28.7,29.7c-3.4,17.2-12.9,31.5-23.4,44.8
		c-13.7,17.3-29.4,32.7-50.2,41.5c-8.2,3.5-16.7,7.8-26.2,3c-4.2-2.1-7.9-5.2-9.7-8.9c-3.1-6.2-5.3-3.7-8.5-0.7
		c-4.4,4.1-9.8,6.6-15.1,9.3c-9.4,4.8-18.7,4-25.9-2.7s-8.5-16.3-6-26c0.4-1.5,0.7-2.8,0.4-5.1c-10.1,9.6-18.7,20.2-30.5,27.2
		c-5.5,3.3-10.8,7-17.3,7.9c-23.2,3.1-31.4-16.2-27.3-33.7c9-38.6,34.8-63,70.4-77.6c11.9-4.9,24.3-5.5,34.8,5.4
		c3-4.5,6.9-7.7,13.3-6.8c3.5,0.5,7.2,0.2,8.7,3.8c1.4,3.2,0.4,6.1-1.7,9.4c-13,20.6-24.3,42.1-30.2,66c-0.7,2.7-0.9,5.2-0.7,7.7
		c0.4,5.5,3.4,8.6,8.9,5.9c12-6.1,22.9-13.8,27.8-27.2c13.5-37.6,34.1-71.5,54.8-105.3c11.8-19.2,24.5-37.9,36.7-56.8
		c4.8-7.3,11.4-11.1,20.2-11c2.2,0,5.5-1.4,6.5,1.1C705.8,378.2,705.2,381,703.3,383.8L703.3,383.8z M554.9,496.7
		c-2.9,0-4.5-0.1-6,0c-1,0.1-2,0.4-3,0.6c-21.7,4.3-36.8,18.7-50.3,34.6c-7.4,8.7-13.1,19-17.6,29.6c-1.5,3.5-2.2,8.2,0,10.4
		c2.8,2.7,6.6-0.4,9.5-2.5c17.2-12.5,33.2-26.3,46.2-43.2C540.8,516.9,547.4,507.1,554.9,496.7L554.9,496.7z M634.6,504.2
		c-3.4-2.1-4.2-0.2-5.7,2.3c-7.9,12.7-14.1,26.2-20.3,39.7c-3.1,6.7-5.4,13.8-6.5,20.3c-0.2,7.7,2.4,9.5,9,8
		c2.3-0.5,4.5-1.3,6.4-2.4c15.5-8.3,27.1-21.1,38.3-34.2c7.5-8.8,13.2-18.8,15.3-30.6c1.4-8.3-3-13-11-11c-6,1.5-11.6,3.9-17.4,6
		C640.2,503.4,637.4,505.9,634.6,504.2L634.6,504.2z M956.4,490c-3.2,8.7-10,13.6-18.5,16c-7.5,2-9,0.4-10.2-9.8
		c-13.5,5-24.5,13.4-34.8,22.8c-1.2,1-2.2,2.8-1.8,4.2c0.6,2.2,2.8,3.4,4.5,3.4c5,0.2,10.1-3.3,14.5-5.1c7.2-2.9,11.2-0.2,13.5,5.9
		c2.3,6-3,8.3-6.9,9.9c-12.5,5.1-23.6,12.3-34.7,19.8c-4.7,3.2-7.6,7.3-5.8,13.2c1.8,5.8,7,6.4,11.8,7.1
		c19.5,2.8,34.2-7.4,48.5-18.5c4.3-3.3,8.8-6.5,13-10c4.9-4,6.5-0.4,7.2,3.4c1.6,9.3-2.5,16.1-9.8,21.6
		c-18.4,13.7-37.8,24.2-61.7,22.6c-10.3-0.7-19.8-3.2-27.1-11c-2.9-3.1-4.5-3.1-8.2-0.6c-10.5,7.2-21.7,12.7-35.2,11.6
		c-10-0.8-23.2-11.3-23.9-21.1c-0.5-6.7,2.7-13,5.6-19c6.7-13.9,14.6-27.1,22.8-40.2c2.9-4.6,4.8-8.5-0.2-13c-2.3-2-1.5-4.5,0.3-6.9
		c7.5-10,17.2-17.2,28.2-22.7c4.6-2.3,7.7,1.1,10.6,4.1c3,3,4.2,5.9,1.9,10.2c-12.1,22.4-24.5,44.6-37.7,66.3c-2.1,3.5-4,7-5.1,11.1
		c-2.2,8-0.4,11,7.8,10.3c10.2-0.8,17.7-7.2,24.4-14c8.6-8.8,17.2-17.4,30.7-20.8c-13.1-9.6-10.5-25.7-2.8-35
		c14.1-17.1,33.3-25.5,54.5-29.9c5.7-1.2,11.3-2.9,17.5-0.3C956.6,479,959.1,482.8,956.4,490L956.4,490z M1088.4,399
		c-8.7,24.3-23.5,45-38.6,65.6c-19.8,26.9-40.5,53-63,77.7c-6.2,6.8-6.9,15.1-6,23.4c0.9,8.6,14.4,13,24.5,8.8
		c8.6-3.6,15.5-9.5,21.9-16c3.3-3.4,6.5-7,10.2-9.8c3.2-2.4,6.2-2.8,6.5,2.9c0.4,8,0.3,15.4-6.3,21.5
		c-14.8,13.7-31.2,23.6-52.3,23.4c-14.5-0.2-25-10.3-25.4-24.7c-0.1-3.2,0-6.3,0-9.5c-0.1-25,8.3-48,17.6-70.6
		c16-38.7,39-73,68.7-102.6c5.8-5.8,12.3-10.9,20.5-13.4c7.6-2.3,14.5-1.9,20,4.3C1092.1,385.8,1090.7,392.6,1088.4,399L1088.4,399z
		 M1066.5,395.9c-3.6-2.3-7.7,3.1-10.5,6.3c-10.6,12.1-20.1,25.2-29.5,38.3c-16.2,22.4-29.5,46.2-36.8,73.2
		c13-13.6,23.9-29.1,34.8-44.4c14.2-20,28.5-39.8,40-61.7C1066.8,403.1,1070.4,398.4,1066.5,395.9L1066.5,395.9z M812.9,490.4
		c-4,12.8-12.4,23.1-19.5,34.1c-2.9,4.5-6.9,9.3-13.6,6.4c-4.6-2-6.9-10.8-4.2-16.7c2.4-5.3,5.7-10.1,9.2-16.1
		c-7,1.6-11.3,5.8-15.3,9.7c-25.2,24.5-50.5,49-70.7,78.1c-4.2,6.1-15.8,6.2-20.8,0.4c-3-3.5,0.1-6.5,1.4-9.1
		c4.7-8.9,9.8-17.5,15-26.1c13-21.7,26.1-43.3,39-65c4.7-7.8,11.4-11.8,20.5-11.7c7.6,0.1,8.1,1.1,5.2,8.8c-2.6,7-7.2,12.9-9.4,20.7
		c7.6-6.1,14.9-12.5,22.7-18.4c8.8-6.5,18.2-11.8,29.7-11.2C811.1,475,815.6,481.7,812.9,490.4L812.9,490.4z M286.4,736.1
		c-12.5-8.5-18.1-20.8-16.8-35.7c0.8-8.8-1.5-13.8-10.9-15.4c-5.5-0.9-7.7-10-3.8-15.9c3-4.7,2.4-6.8-2.3-9.9
		c-7.6-4.9-8.4-10.1-5.8-19c1.2-4.3,2.2-8.9,0.7-13.6c-1.7-5-2.9-8.9-10.3-6.8c-7.5,2.1-14.6-0.9-19.2-7.6
		c-5.4-7.9-3.1-16.1,1.4-23.1c10.1-15.8,18.5-32.5,26.8-49.3c5-10.2,6-20.6,2.1-31.1c-8.2-22-8-44.4-5.9-67.3
		c1.6-17.4,6.3-32.4,16.2-46c1.3-1.8,15.9-16.3,19-20.6c0,0-4.7-14.3,7.9-30.1l25.3-30.1l-19,28.5c0,0-9.1,12.6-4.8,23.8
		c0,0-27.9,35.3-28.3,43.6c-7.9,29.2-9.6,58.3,0.4,87.3c4.1,11.9,3.9,23.2-2.2,34.5c-8.1,14.8-15.4,29.9-24.4,44.2
		c-10.5,16.8-6,30.3,8.4,36.1c2.9,1.2,5.6,1.1,8.5,1.1c9.4,0,13.3,6.1,9.5,15.3c-3.2,7.9-0.7,17,5.9,22.4c2.8,2.3,4,3.5,1.7,7.3
		c-5.1,8.5-1.4,16.7,7.9,20.1c5,1.9,8.5,4,6.9,11.5c-3.6,16.5,11.5,45.8,37.1,43.9c2.9-0.2,5.8,0,8.7,0
		C313.5,739.4,300,745.3,286.4,736.1L286.4,736.1z M511.1,797.6c-17.7-11.2-33.7-21-46.1-35.1c-6.7-7.5-13.8-13.8-22.3-19.2
		c-7.6-4.9-15.2-10.1-21.9-16.5c-10.8-10.3-22.8-18.5-41.3-15.6c17.7-9.9,34-8.2,47.6,3c10.9,9,21.6,18,33.7,25.4
		c3.1,1.9,6.4,4,8.5,6.9c10.7,14.2,25,24.2,39.2,34.5C514.3,785.2,508.2,790.8,511.1,797.6L511.1,797.6z M1399.9,435.8
		c-3.1,9.4-8.7,16.7-18.8,19.7c-7.8,2.3-11,0.1-11-8c0-11.4,10-22.3,21-22.7C1398.2,424.6,1402.2,429.1,1399.9,435.8L1399.9,435.8z
		 M891.7,435.4c-2.9,9.5-8.5,16.9-18.5,20.1c-8.2,2.7-11.5,0.2-11.4-8.2c0.1-11,9.8-21.5,20.5-22.2
		C889.6,424.5,893.7,428.7,891.7,435.4L891.7,435.4z M397.9,534.8c-0.5-0.2-1-0.4-1.5-0.6c1.1-1.6,2.2-3.3,4.6-4.1
		C401.2,532.7,399.7,533.8,397.9,534.8L397.9,534.8z M396.8,566.6c-0.8-0.9-0.3-1.7,0.6-2.2c0.4,0.5,0.8,1.1,1.2,1.7
		C397.9,566.2,396.9,566.8,396.8,566.6L396.8,566.6z M396.4,536.4c-0.2-0.5-0.4-1.1-0.6-1.6c0.1-0.3,0.4-0.5,0.6-0.6
		c0.5,0.2,1,0.4,1.5,0.6C397.4,535.3,396.9,535.9,396.4,536.4L396.4,536.4z"/>
	<path class="st0" d="M495.4,672.3H494l19.6,31.5h-11L483,672.3h-10v31.5h-10.1v-74.3h32.5c10.9,0,19.1,9.3,19.1,21.5
		C514.5,663.1,506.2,672.3,495.4,672.3L495.4,672.3z M495.4,638.8l-22.4-0.2v24.7h22.4c5.6,0,9.8-5.3,9.8-12.2
		C505.2,643.8,500.6,638.8,495.4,638.8L495.4,638.8z M665.7,693.7v10.1h-44.9v-74.3h44.9v10.1h-34.8V660h28.5v10.1h-28.5v23.6
		L665.7,693.7L665.7,693.7z M799,639.6v64.2h-10.1v-64.2h-21.1v-10.1h52.3v10.1H799L799,639.6z M950.5,672.3h-1.4l19.6,31.5h-11
		l-19.6-31.5h-10v31.5H918v-74.3h32.5c10.9,0,19.1,9.3,19.1,21.5C969.6,663.1,961.4,672.3,950.5,672.3L950.5,672.3z M950.5,638.8
		l-22.4-0.2v24.7h22.4c5.6,0,9.8-5.3,9.8-12.2C960.3,643.8,955.8,638.8,950.5,638.8L950.5,638.8z M1134.4,703.8l-7.1-20.2H1097
		l-7.8,20.2h-10.1l28.9-74.3h10.2l26.3,74.3H1134.4L1134.4,703.8z M1112.8,642.8l-12,31h23L1112.8,642.8L1112.8,642.8z
		 M1273.6,639.6v64.2h-10.1v-64.2h-21.1v-10.1h52.3v10.1H1273.6L1273.6,639.6z M1431,705.3c-18.2,0-32.1-16.6-32.1-38.4
		c0-22.6,13.8-39.5,32.1-39.5c18.2,0,32.1,17,32.1,39.5C1463,688.8,1449.2,705.3,1431,705.3L1431,705.3z M1431,636.4
		c-12.6,0-21.9,13.1-21.9,30.5c0,16.7,9.4,29.3,21.9,29.3c12.6,0,21.9-12.7,21.9-29.3C1452.9,649.5,1443.5,636.4,1431,636.4
		L1431,636.4z M1589.7,635.3c-7.3,0-13.2,4.8-13.2,11.1c0,4.8,3.4,9.8,7.8,11.4l14,5.1c10,3.6,17.6,11,17.6,22
		c0,11.3-10.4,21.1-24.4,21.1c-12.4,0-24.3-8-27.5-18.7l7.9-4.8c2.6,8.3,10.8,14.1,19.6,14.1c8.4,0,15.3-5.2,15.3-12
		c0-5.4-4-10.9-9.4-12.7l-14.8-5.1c-9.2-3.2-15.3-11.5-15.3-20.3c0-11.1,9.7-20.6,22.5-20.6c10.4,0,21.4,6.5,25.6,15.3l-8.3,5.1
		C1603.9,639.8,1596.9,635.3,1589.7,635.3L1589.7,635.3z"/>
</g>
</svg>
